<svg width="50" height="29" viewBox="0 0 50 29" fill="none" xmlns="http://www.w3.org/2000/svg">
<path d="M28.0484 1.12573V4.97062H26.2627V1.12573H28.0484Z" fill="#241C15"/>
<path fill-rule="evenodd" clip-rule="evenodd" d="M32.2061 6.25224C32.461 6.51094 32.5376 6.89982 32.4003 7.23812L30.4172 12.1263L33.4687 15.2236C33.7266 15.4854 33.8017 15.8799 33.6587 16.2202C33.5155 16.5605 33.1829 16.7784 32.8184 16.7705L28.0291 16.6671L26.0838 21.3435C25.9393 21.691 25.5978 21.9112 25.2266 21.8965C24.8553 21.8819 24.5318 21.6354 24.4143 21.2776L23.1144 17.3195L15.1783 25.3745L13.3926 23.562L21.3418 15.4936L17.4028 14.161C17.0503 14.0417 16.8074 13.7133 16.7929 13.3365C16.7785 12.9596 16.9955 12.613 17.3378 12.4664L21.9452 10.4918L21.8432 5.63071C21.8354 5.26073 22.0501 4.92315 22.3854 4.7779C22.7208 4.63266 23.1095 4.70895 23.3672 4.97062L26.4187 8.06789L31.2348 6.05507C31.568 5.91577 31.9512 5.99355 32.2061 6.25224ZM29.9332 8.55919L26.5482 9.97391C26.215 10.1132 25.8318 10.0354 25.577 9.77671L23.6758 7.84709L23.7433 11.0682C23.7511 11.4394 23.535 11.778 23.1979 11.9224L20.2135 13.2013L23.6495 14.3639C23.9162 14.4541 24.1254 14.6665 24.2143 14.9371L25.3596 18.4247L26.6197 15.3955C26.762 15.0534 27.0955 14.834 27.4612 14.8419L30.6348 14.9104L28.7336 12.9809C28.4788 12.7221 28.4021 12.3332 28.5395 11.9949L29.9332 8.55919Z" fill="#241C15"/>
<path d="M17.6856 5.61143L20.211 8.17469L18.9483 9.45635L16.4229 6.89306L17.6856 5.61143Z" fill="#241C15"/>
<path d="M29.0498 19.7094L30.3125 18.4278L32.8378 20.991L31.5752 22.2726L29.0498 19.7094Z" fill="#241C15"/>
<path d="M37.2568 12.285H33.4688V10.4725H37.2569L37.2568 12.285Z" fill="#241C15"/>
</svg>
