<svg width="50" height="29" viewBox="0 0 50 29" fill="none" xmlns="http://www.w3.org/2000/svg">
<path fill-rule="evenodd" clip-rule="evenodd" d="M14.0425 6.0772V22.0165H35.958V6.0772H14.0425ZM12.8249 3.625C12.1525 3.625 11.6074 4.17394 11.6074 4.8511V23.2427C11.6074 23.9198 12.1525 24.4688 12.8249 24.4688H37.1756C37.848 24.4688 38.3931 23.9198 38.3931 23.2427V4.8511C38.3931 4.17394 37.848 3.625 37.1756 3.625H12.8249Z" fill="#241C15"/>
<path fill-rule="evenodd" clip-rule="evenodd" d="M18.7499 13.5938C20.2292 13.5938 21.4284 12.3766 21.4284 10.875C21.4284 9.37343 20.2292 8.15625 18.7499 8.15625C17.2705 8.15625 16.0713 9.37343 16.0713 10.875C16.0713 12.3766 17.2705 13.5938 18.7499 13.5938Z" fill="#241C15"/>
<path fill-rule="evenodd" clip-rule="evenodd" d="M30.643 9.96875H32.1536L37.5003 13.9031L36.0653 15.8964L31.4648 12.5113L22.4868 20.3783L19.9423 18.67L13.1855 24.4688L11.6074 22.5891L19.1308 16.1325H20.5711L22.291 17.2873L30.643 9.96875Z" fill="#241C15"/>
</svg>
