<svg width="50" height="29" viewBox="0 0 50 29" fill="none" xmlns="http://www.w3.org/2000/svg">
<g clip-path="url(#clip0_117_153)">
<path fill-rule="evenodd" clip-rule="evenodd" d="M25.4648 1.88838L35.8069 7.94894C35.9796 8.05011 36.0859 8.23709 36.0859 8.43944V20.5605C36.0859 20.7629 35.9796 20.9499 35.8069 21.0511L25.4648 27.1116C25.2921 27.2128 25.0795 27.2128 24.9068 27.1116L14.5647 21.0511C14.3921 20.9499 14.2857 20.7629 14.2857 20.5605V8.43944C14.2857 8.23709 14.3921 8.05011 14.5647 7.94894L24.9068 1.88838C25.0795 1.78721 25.2921 1.78721 25.4648 1.88838ZM24.0139 0.31871C24.7391 -0.106237 25.6325 -0.106237 26.3577 0.31871L36.6997 6.37927C37.4249 6.80422 37.8716 7.58955 37.8716 8.43944V20.5605C37.8716 21.4104 37.4249 22.1958 36.6997 22.6207L26.3577 28.6813C25.6325 29.1062 24.7391 29.1062 24.0139 28.6813L13.6719 22.6207C12.9467 22.1958 12.5 21.4104 12.5 20.5605V8.43944C12.5 7.58955 12.9467 6.80422 13.6719 6.37927L24.0139 0.31871ZM22.4766 18.9558H20.8946L23.9196 9.7846H26.1218L29.1088 18.9558H27.3622L26.6407 16.6854H23.1854L22.4766 18.9558ZM26.2484 15.4412L24.9195 11.1827L23.5778 15.4412H26.2484Z" fill="#241C15"/>
</g>
<defs>
<clipPath id="clip0_117_153">
<rect width="50" height="29" fill="white"/>
</clipPath>
</defs>
</svg>
