<svg width="18" height="6" viewBox="0 0 18 6" fill="none" xmlns="http://www.w3.org/2000/svg">
<g clip-path="url(#clip0_117_90)">
<path d="M1 2C1.55228 2 2 1.55228 2 1C2 0.447715 1.55228 0 1 0C0.447715 0 0 0.447715 0 1C0 1.55228 0.447715 2 1 2Z" fill="#241C15" fill-opacity="0.3"/>
<path d="M1 6C1.55228 6 2 5.55228 2 5C2 4.44772 1.55228 4 1 4C0.447715 4 0 4.44772 0 5C0 5.55228 0.447715 6 1 6Z" fill="#241C15" fill-opacity="0.3"/>
<path d="M5 2C5.55228 2 6 1.55228 6 1C6 0.447715 5.55228 0 5 0C4.44772 0 4 0.447715 4 1C4 1.55228 4.44772 2 5 2Z" fill="#241C15" fill-opacity="0.3"/>
<path d="M5 6C5.55228 6 6 5.55228 6 5C6 4.44772 5.55228 4 5 4C4.44772 4 4 4.44772 4 5C4 5.55228 4.44772 6 5 6Z" fill="#241C15" fill-opacity="0.3"/>
<path d="M9 2C9.55228 2 10 1.55228 10 1C10 0.447715 9.55228 0 9 0C8.44772 0 8 0.447715 8 1C8 1.55228 8.44772 2 9 2Z" fill="#241C15" fill-opacity="0.3"/>
<path d="M9 6C9.55228 6 10 5.55228 10 5C10 4.44772 9.55228 4 9 4C8.44772 4 8 4.44772 8 5C8 5.55228 8.44772 6 9 6Z" fill="#241C15" fill-opacity="0.3"/>
<path d="M13 2C13.5523 2 14 1.55228 14 1C14 0.447715 13.5523 0 13 0C12.4477 0 12 0.447715 12 1C12 1.55228 12.4477 2 13 2Z" fill="#241C15" fill-opacity="0.3"/>
<path d="M13 6C13.5523 6 14 5.55228 14 5C14 4.44772 13.5523 4 13 4C12.4477 4 12 4.44772 12 5C12 5.55228 12.4477 6 13 6Z" fill="#241C15" fill-opacity="0.3"/>
<path d="M17 2C17.5523 2 18 1.55228 18 1C18 0.447715 17.5523 0 17 0C16.4477 0 16 0.447715 16 1C16 1.55228 16.4477 2 17 2Z" fill="#241C15" fill-opacity="0.3"/>
<path d="M17 6C17.5523 6 18 5.55228 18 5C18 4.44772 17.5523 4 17 4C16.4477 4 16 4.44772 16 5C16 5.55228 16.4477 6 17 6Z" fill="#241C15" fill-opacity="0.3"/>
</g>
<defs>
<clipPath id="clip0_117_90">
<rect width="18" height="6" fill="white"/>
</clipPath>
</defs>
</svg>
