<svg width="50" height="29" viewBox="0 0 50 29" fill="none" xmlns="http://www.w3.org/2000/svg">
<mask id="mask0_117_118" style="mask-type:luminance" maskUnits="userSpaceOnUse" x="5" y="7" width="40" height="14">
<path d="M41.964 9.96875H8.03544C7.54232 9.96875 7.14258 10.3745 7.14258 10.875V17.2188C7.14258 17.7193 7.54232 18.125 8.03544 18.125H41.964C42.4571 18.125 42.8569 17.7193 42.8569 17.2188V10.875C42.8569 10.3745 42.4571 9.96875 41.964 9.96875Z" stroke="#241C15" stroke-width="4"/>
</mask>
<g mask="url(#mask0_117_118)">
<path d="M41.964 9.96875H8.03544C7.54232 9.96875 7.14258 10.3745 7.14258 10.875V17.2188C7.14258 17.7193 7.54232 18.125 8.03544 18.125H41.964C42.4571 18.125 42.8569 17.7193 42.8569 17.2188V10.875C42.8569 10.3745 42.4571 9.96875 41.964 9.96875Z" stroke="#241C15" stroke-width="4"/>
</g>
<path d="M35.7147 4.53125H14.2861V8.15625H35.7147V4.53125Z" fill="#DBD9D2"/>
<path d="M35.7147 19.9375H14.2861V23.5625H35.7147V19.9375Z" fill="#DBD9D2"/>
</svg>
